# xmcd
#
# Track frame offsets:
#	150
#	16125
#	38787
#	66412
#	105850
#	127500
#	150412
#	182900
#
# Disc length: 2891 seconds
#
# Revision: 1
# Processed by: cddbd v1.5.1PL0 Copyright (c) Steve Scherf et al.
# Submitted via: CDex 1.50Beta5
#
DISCID=530b4908
DTITLE=上野耕路 - アルト・サクソフォン、ピアノ、弦楽のための三章、他
DYEAR=1992
DGENRE=Soundtrack
TTITLE0=3 Mobimenti per sassofono contralto, pianoforte ed archi - Moderato
TTITLE1=3 Mobimenti per sassofono contralto, pianoforte ed archi - Vivace
TTITLE2=3 Mobimenti per sassofono contralto, pianoforte ed archi - Andante - Allegro moderato - Andante
TTITLE3=Burlesca fantastica per clarinetto, violino, viola e viloncello
TTITLE4=2 Eclogues for small orchestra - Andante - Lento
TTITLE5=2 Eclogues for small orchestra - Andante(1991)
TTITLE6=The fueral music for small orchestra
TTITLE7=Misogynie pour vocalise et 6 instruments de soli
EXTD=
EXTT0=
EXTT1=
EXTT2=
EXTT3=
EXTT4=
EXTT5=
EXTT6=
EXTT7=
PLAYORDER=
